<?xml version="1.0" encoding="iso-8859-1"?>
<!-- Generator: Adobe Illustrator 19.0.0, SVG Export Plug-In . SVG Version: 6.00 Build 0)  -->
<svg version="1.1" id="Capa_1" xmlns="http://www.w3.org/2000/svg" xmlns:xlink="http://www.w3.org/1999/xlink" x="0px" y="0px"
	 viewBox="0 0 483.096 483.096" style="enable-background:new 0 0 483.096 483.096;" xml:space="preserve">
<g>
	<g>
		<g>
			<path d="M258.716,152l-17.168-52.712L224.38,152h-55.496l44.936,32.576l-17.176,52.744l44.904-32.52l44.904,32.56l-17.176-52.744
				L314.212,152H258.716z M256.004,195.48L241.548,185l-14.456,10.48l5.544-17.016L218.212,168h17.784l5.552-17.048L247.1,168
				h17.784l-14.4,10.464L256.004,195.48z"/>
			<path d="M396.132,134.576c-0.871-5.722-0.727-11.552,0.424-17.224c2.377-9.802,1.475-20.112-2.568-29.352
				c-6.046-8.227-14.636-14.231-24.44-17.08c-5.393-1.79-10.427-4.517-14.872-8.056c-3.536-4.442-6.257-9.474-8.04-14.864
				c-2.854-9.804-8.86-18.393-17.088-24.44c-9.25-4.058-19.579-4.958-29.392-2.56c-5.669,1.153-11.498,1.294-17.216,0.416
				c-5.131-2.034-9.866-4.95-13.992-8.616c-7.464-7.183-17.101-11.686-27.4-12.8c-10.299,1.114-19.936,5.617-27.4,12.8
				c-4.132,3.684-8.879,6.613-14.024,8.656c-5.719,0.87-11.546,0.729-17.216-0.416c-9.799-2.391-20.112-1.506-29.36,2.52
				c-8.227,6.046-14.231,14.636-17.08,24.44c-1.786,5.394-4.514,10.429-8.056,14.872c-4.444,3.534-9.475,6.259-14.864,8.048
				c-9.803,2.846-18.392,8.85-24.432,17.08c-4.056,9.248-4.961,19.572-2.576,29.384c1.151,5.669,1.295,11.497,0.424,17.216
				c-2.05,5.145-4.982,9.894-8.664,14.032c-7.16,7.462-11.645,17.086-12.752,27.368c1.102,10.288,5.587,19.919,12.752,27.384
				c3.682,4.141,6.614,8.892,8.664,14.04c0.871,5.722,0.727,11.552-0.424,17.224c-2.377,9.802-1.475,20.112,2.568,29.352
				c6.046,8.227,14.636,14.231,24.44,17.08c5.393,1.79,10.427,4.517,14.872,8.056c3.536,4.442,6.258,9.474,8.04,14.864l1.088,2.6
				v176.496l104-34.664l104,34.664V306.592c0.36-0.864,0.728-1.728,1.08-2.576c1.786-5.394,4.514-10.429,8.056-14.872
				c4.443-3.54,9.474-6.27,14.864-8.064c9.803-2.846,18.392-8.85,24.432-17.08c4.056-9.248,4.961-19.572,2.576-29.384
				c-1.151-5.669-1.295-11.497-0.424-17.216c2.05-5.145,4.982-9.894,8.664-14.032c7.16-7.462,11.645-17.086,12.752-27.368
				c-1.102-10.288-5.587-19.919-12.752-27.384C401.114,144.475,398.182,139.724,396.132,134.576z M329.548,400h-56v16h56v44.904
				l-80-26.672V376h-16v58.232l-80,26.672V384h56v-16h-56v-39.544c9.246,4.034,19.558,4.927,29.36,2.544
				c5.671-1.141,11.497-1.282,17.216-0.416c5.145,2.043,9.892,4.972,14.024,8.656c7.469,7.169,17.106,11.657,27.4,12.76
				c10.294-1.103,19.931-5.591,27.4-12.76c4.132-3.684,8.879-6.613,14.024-8.656c5.718-0.878,11.547-0.737,17.216,0.416
				c9.802,2.392,20.118,1.495,29.36-2.552V400z M392.1,193.648c-5.051,5.742-8.929,12.417-11.416,19.648
				c-1.52,7.723-1.52,15.669,0,23.392c1.64,6.361,1.448,13.055-0.552,19.312c-4.471,4.953-10.263,8.525-16.696,10.296
				c-7.376,2.497-14.192,6.413-20.064,11.528c-5.113,5.87-9.03,12.683-11.528,20.056c-1.764,6.438-5.337,12.235-10.296,16.704
				c-6.259,2.002-12.957,2.193-19.32,0.552c-7.724-1.516-15.668-1.516-23.392,0c-7.232,2.49-13.907,6.371-19.648,11.424
				c-4.84,4.79-10.969,8.07-17.64,9.44c-6.675-1.371-12.806-4.653-17.648-9.448c-5.741-5.053-12.416-8.934-19.648-11.424
				c-3.185-0.815-6.464-1.208-9.752-1.168c-4.57,0.1-9.128,0.493-13.648,1.176c-6.358,1.64-13.049,1.451-19.304-0.544
				c-4.951-4.474-8.52-10.269-10.288-16.704c-2.497-7.376-6.413-14.192-11.528-20.064c-5.868-5.114-12.682-9.028-20.056-11.52
				c-6.441-1.772-12.242-5.347-16.72-10.304c-2.001-6.257-2.193-12.951-0.552-19.312c1.52-7.726,1.52-15.674,0-23.4
				c-2.485-7.234-6.366-13.91-11.424-19.648c-4.784-4.844-8.06-10.972-9.432-17.64c1.371-6.675,4.653-12.806,9.448-17.648
				c5.051-5.742,8.929-12.417,11.416-19.648c1.52-7.723,1.52-15.669,0-23.392c-1.64-6.361-1.448-13.055,0.552-19.312
				c4.471-4.953,10.263-8.525,16.696-10.296c7.376-2.496,14.192-6.413,20.064-11.528c5.113-5.87,9.03-12.683,11.528-20.056
				c1.764-6.438,5.337-12.235,10.296-16.704c6.257-2.014,12.958-2.206,19.32-0.552c7.723,1.52,15.669,1.52,23.392,0
				c7.232-2.49,13.907-6.371,19.648-11.424c4.84-4.79,10.969-8.07,17.64-9.44c6.675,1.371,12.806,4.653,17.648,9.448
				c5.741,5.053,12.416,8.934,19.648,11.424c7.726,1.52,15.674,1.52,23.4,0c6.357-1.642,13.048-1.456,19.304,0.536
				c4.951,4.474,8.52,10.269,10.288,16.704c2.496,7.376,6.413,14.192,11.528,20.064c5.868,5.114,12.682,9.028,20.056,11.52
				c6.441,1.772,12.242,5.347,16.72,10.304c2.001,6.257,2.193,12.951,0.552,19.312c-1.52,7.726-1.52,15.674,0,23.4
				c2.485,7.234,6.366,13.91,11.424,19.648c4.784,4.844,8.06,10.972,9.432,17.64C400.177,182.675,396.895,188.806,392.1,193.648z"/>
			<path d="M241.548,48c-70.692,0.019-127.985,57.342-127.966,128.034c0.014,52.346,31.9,99.408,80.51,118.83
				c65.654,26.209,140.125-5.767,166.334-71.422c6.025-15.092,9.12-31.192,9.122-47.442C369.464,105.342,312.206,48.084,241.548,48z
				 M353.548,176c-0.103,45.795-27.995,86.943-70.496,104c-57.452,22.922-122.608-5.07-145.53-62.522
				c-22.922-57.452,5.07-122.608,62.522-145.53c57.452-22.922,122.608,5.07,145.53,62.522
				C350.845,147.681,353.551,161.776,353.548,176z"/>
			<path d="M57.548,288h-16c0,17.673-14.327,32-32,32v16c17.673,0,32,14.327,32,32h16c0-17.673,14.327-32,32-32v-16
				C71.875,320,57.548,305.673,57.548,288z M49.548,341.496l-0.072-0.096c-3.528-5.272-8.056-9.8-13.328-13.328L36.052,328
				c5.35-3.558,9.938-8.146,13.496-13.496c3.558,5.35,8.146,9.938,13.496,13.496C57.694,331.558,53.106,336.146,49.548,341.496z"/>
			<path d="M441.548,8h-16c0,17.673-14.327,32-32,32v16c17.673,0,32,14.327,32,32h16c0-17.673,14.327-32,32-32V40
				C455.875,40,441.548,25.673,441.548,8z M433.548,61.496l-0.072-0.096c-3.528-5.272-8.056-9.8-13.328-13.328L420.052,48
				c5.35-3.558,9.938-8.146,13.496-13.496c3.558,5.35,8.146,9.938,13.496,13.496C441.694,51.558,437.106,56.146,433.548,61.496z"/>
		</g>
	</g>
</g>
<g>
</g>
<g>
</g>
<g>
</g>
<g>
</g>
<g>
</g>
<g>
</g>
<g>
</g>
<g>
</g>
<g>
</g>
<g>
</g>
<g>
</g>
<g>
</g>
<g>
</g>
<g>
</g>
<g>
</g>
</svg>
