<?xml version="1.0" encoding="iso-8859-1"?>
<!-- Generator: Adobe Illustrator 19.0.0, SVG Export Plug-In . SVG Version: 6.00 Build 0)  -->
<svg version="1.1" id="Capa_1" xmlns="http://www.w3.org/2000/svg" xmlns:xlink="http://www.w3.org/1999/xlink" x="0px" y="0px"
	 viewBox="0 0 480 480" style="enable-background:new 0 0 480 480;" xml:space="preserve">
<g>
	<g>
		<path d="M472,68H152c-4.418,0-8,3.582-8,8v88H40c-3.669,0-6.868,2.497-7.76,6.056l-32,128C0.081,298.692,0,299.345,0,300v64
			c0,4.418,3.582,8,8,8h32c0,22.091,17.909,40,40,40s40-17.909,40-40h240c0,22.091,17.909,40,40,40c22.091,0,40-17.909,40-40h32
			c4.418,0,8-3.582,8-8V76C480,71.582,476.418,68,472,68z M38.248,212H112v64H22.248L38.248,212z M80,396c-13.255,0-24-10.745-24-24
			c-0.019-2.036,0.251-4.064,0.8-6.024C59.509,355.381,69.065,347.978,80,348c11.01-0.02,20.611,7.48,23.256,18.168
			c0.519,1.9,0.77,3.863,0.744,5.832C104,385.255,93.255,396,80,396z M400,396c-13.255,0-24-10.745-24-24
			c-0.019-2.036,0.251-4.064,0.8-6.024c2.709-10.595,12.265-17.998,23.2-17.976c11.01-0.02,20.611,7.48,23.256,18.168
			c0.519,1.9,0.77,3.863,0.744,5.832C424,385.255,413.255,396,400,396z M464,356h-27.336l-0.096-0.184
			c-0.2-0.448-0.472-0.856-0.688-1.304c-0.677-1.437-1.441-2.832-2.288-4.176c-0.408-0.64-0.88-1.216-1.32-1.824
			c-0.8-1.056-1.6-2.104-2.4-3.08c-0.552-0.616-1.136-1.176-1.72-1.76c-0.872-0.864-1.768-1.704-2.72-2.488
			c-0.648-0.536-1.32-1.04-2-1.536c-0.992-0.712-2.008-1.376-3.064-2c-0.72-0.424-1.44-0.848-2.192-1.224
			c-1.12-0.576-2.28-1.064-3.456-1.528c-0.752-0.296-1.48-0.616-2.248-0.864c-1.333-0.417-2.687-0.764-4.056-1.04
			c-0.68-0.144-1.336-0.344-2.024-0.456c-4.215-0.715-8.521-0.715-12.736,0c-0.696,0.112-1.36,0.312-2.048,0.456
			c-1.35,0.275-2.685,0.619-4,1.032c-0.8,0.256-1.6,0.592-2.344,0.896c-1.128,0.456-2.24,0.92-3.312,1.464
			c-0.8,0.408-1.6,0.864-2.4,1.336c-0.96,0.568-1.888,1.168-2.792,1.816s-1.552,1.144-2.296,1.76
			c-0.744,0.616-1.6,1.376-2.304,2.104c-0.704,0.728-1.456,1.416-2.128,2.176s-1.256,1.552-1.856,2.352s-1.288,1.648-1.848,2.544
			s-1.032,1.84-1.528,2.768c-0.496,0.928-0.984,1.72-1.384,2.64l-0.08,0.12H116.664l-0.096-0.184
			c-0.2-0.448-0.472-0.856-0.688-1.304c-0.677-1.437-1.441-2.832-2.288-4.176c-0.408-0.64-0.88-1.216-1.32-1.824
			c-0.8-1.056-1.56-2.104-2.4-3.08c-0.552-0.616-1.136-1.176-1.72-1.76c-0.872-0.864-1.768-1.704-2.72-2.488
			c-0.648-0.536-1.32-1.04-2-1.536c-0.992-0.712-2.008-1.376-3.064-2c-0.72-0.424-1.44-0.848-2.192-1.224
			c-1.12-0.576-2.28-1.064-3.456-1.528c-0.752-0.296-1.48-0.616-2.248-0.864c-1.333-0.417-2.687-0.764-4.056-1.04
			c-0.68-0.144-1.336-0.344-2.024-0.456c-4.215-0.715-8.521-0.715-12.736,0c-0.696,0.112-1.36,0.312-2.048,0.456
			c-1.35,0.275-2.685,0.619-4,1.032c-0.8,0.256-1.6,0.592-2.344,0.896c-1.128,0.456-2.24,0.92-3.312,1.464
			c-0.8,0.408-1.6,0.864-2.4,1.336c-0.96,0.568-1.888,1.168-2.792,1.816s-1.552,1.144-2.296,1.76
			c-0.744,0.616-1.56,1.376-2.304,2.104c-0.744,0.728-1.456,1.416-2.128,2.176s-1.256,1.552-1.856,2.352
			c-0.6,0.8-1.288,1.648-1.848,2.544s-1.032,1.84-1.528,2.768c-0.496,0.928-0.984,1.72-1.384,2.64l-0.08,0.12H16v-32h24v-16H16
			v-7.016L18.248,292H120c4.418,0,8-3.582,8-8v-80c0-4.418-3.582-8-8-8H42.248l4-16H144v120c0,4.418,3.582,8,8,8h312V356z M464,292
			H160V84h304V292z"/>
	</g>
</g>
<g>
	<g>
		<rect x="72" y="364" width="16" height="16"/>
	</g>
</g>
<g>
	<g>
		<rect x="392" y="364" width="16" height="16"/>
	</g>
</g>
<g>
	<g>
		<rect x="184" y="100" width="16" height="176"/>
	</g>
</g>
<g>
	<g>
		<rect x="232" y="100" width="16" height="176"/>
	</g>
</g>
<g>
	<g>
		<rect x="280" y="100" width="16" height="176"/>
	</g>
</g>
<g>
	<g>
		<rect x="328" y="100" width="16" height="176"/>
	</g>
</g>
<g>
	<g>
		<rect x="376" y="100" width="16" height="176"/>
	</g>
</g>
<g>
	<g>
		<rect x="424" y="100" width="16" height="176"/>
	</g>
</g>
<g>
</g>
<g>
</g>
<g>
</g>
<g>
</g>
<g>
</g>
<g>
</g>
<g>
</g>
<g>
</g>
<g>
</g>
<g>
</g>
<g>
</g>
<g>
</g>
<g>
</g>
<g>
</g>
<g>
</g>
</svg>
