<?xml version="1.0" encoding="iso-8859-1"?>
<!-- Generator: Adobe Illustrator 19.0.0, SVG Export Plug-In . SVG Version: 6.00 Build 0)  -->
<svg version="1.1" id="Capa_1" xmlns="http://www.w3.org/2000/svg" xmlns:xlink="http://www.w3.org/1999/xlink" x="0px" y="0px"
	 viewBox="0 0 480 480" style="enable-background:new 0 0 480 480;" xml:space="preserve">
<g>
	<g>
		<g>
			<path d="M473.016,30.984c-4.48-4.456-10.537-6.966-16.856-6.984H23.84C10.681,24.018,0.018,34.681,0,47.84v288.32
				c0.018,13.159,10.681,23.822,23.84,23.84H176v48h-8c-4.418,0-8,3.582-8,8v24h-32v16h224v-16h-32v-24c0-4.418-3.582-8-8-8h-8v-48
				h152.16c13.159-0.018,23.822-10.681,23.84-23.84V47.84C479.982,41.521,477.472,35.464,473.016,30.984z M304,440H176v-16h128V440z
				 M192,408v-48h96v48H192z M464,336.16c0,4.33-3.51,7.84-7.84,7.84H23.84c-4.33,0-7.84-3.51-7.84-7.84V47.84
				c0-4.33,3.51-7.84,7.84-7.84h432.32c4.326,0.009,7.831,3.514,7.84,7.84V336.16z"/>
			<rect x="48" y="280" width="384" height="16"/>
			<rect x="224" y="312" width="32" height="16"/>
			<path d="M184.048,184.88c0.449,4.053,3.874,7.12,7.952,7.12h96c4.078,0,7.503-3.067,7.952-7.12l8-72
				c0.486-4.391-2.68-8.345-7.071-8.831C296.588,104.016,296.294,104,296,104H183.616c-4.418-0.002-8.002,3.578-8.004,7.996
				c-0.001,1.129,0.238,2.245,0.7,3.276L184.048,184.88z M287.064,120l-6.264,56h-81.6l-6.224-56H287.064z"/>
			<path d="M176,240c0,13.255,10.745,24,24,24s24-10.745,24-24s-10.745-24-24-24S176,226.745,176,240z M200,232c4.418,0,8,3.582,8,8
				s-3.582,8-8,8s-8-3.582-8-8S195.582,232,200,232z"/>
			<path d="M256,240c0,13.255,10.745,24,24,24s24-10.745,24-24s-10.745-24-24-24S256,226.745,256,240z M280,232c4.418,0,8,3.582,8,8
				s-3.582,8-8,8s-8-3.582-8-8S275.582,232,280,232z"/>
			<rect x="232" y="128" width="16" height="40"/>
			<rect x="208" y="128" width="16" height="40"/>
			<rect x="256" y="128" width="16" height="40"/>
			<path d="M119.832,120H136v-16h-16.168c-2.718,0.131-5.292-1.231-6.712-3.552c-1.543-2.683-1.515-5.991,0.072-8.648
				c1.457-2.362,4.033-3.8,6.808-3.8h17.68c4.124-0.021,7.588,3.097,8,7.2l14.4,113.768c0.488,4.006,3.884,7.021,7.92,7.032h32h80
				h32v-16H175.048l-13.52-106.648C160.179,81.199,149.908,72.003,137.68,72H120c-8.315-0.029-16.046,4.276-20.4,11.36
				c-4.525,7.356-4.829,16.554-0.8,24.192C102.908,115.33,111.037,120.141,119.832,120z"/>
		</g>
	</g>
</g>
<g>
</g>
<g>
</g>
<g>
</g>
<g>
</g>
<g>
</g>
<g>
</g>
<g>
</g>
<g>
</g>
<g>
</g>
<g>
</g>
<g>
</g>
<g>
</g>
<g>
</g>
<g>
</g>
<g>
</g>
</svg>
