<?xml version="1.0" encoding="iso-8859-1"?>
<!-- Generator: Adobe Illustrator 19.0.0, SVG Export Plug-In . SVG Version: 6.00 Build 0)  -->
<svg version="1.1" id="Capa_1" xmlns="http://www.w3.org/2000/svg" xmlns:xlink="http://www.w3.org/1999/xlink" x="0px" y="0px"
	 viewBox="0 0 49.195 49.195" style="enable-background:new 0 0 49.195 49.195;" xml:space="preserve">
<g>
	<g>
		<path d="M30.757,21.106l-0.1-0.023c-5.739-1.025-9.104-2.565-9.113-2.565c0,0,0,0,0,0c-0.559-0.317-1.235-0.815-1.287-1.384
			c-0.047-0.518,0.425-1.079,0.668-1.309c5.583-2.843,8.056,0.639,8.16,0.79c1.567,2.316,3.169,3.584,4.761,3.77
			c1.384,0.16,2.221-0.568,2.293-0.635c1.15-1.009,1.734-2.19,1.736-3.508c0.004-2.557-2.28-4.605-2.357-4.673
			c-6.688-6.234-17.094-2.658-17.518-2.506c-8.427,2.831-6.673,10.743-6.655,10.822l0.033,0.111
			c2.495,6.903,13.004,7.799,13.45,7.834c5.022,0.397,5.234,2.798,5.243,2.933c0.181,2.528-4.259,3.277-4.884,3.37
			c-4.383-0.244-5.414-1.952-5.415-1.952c0,0,0,0,0,0l-0.102-0.167c-2.292-3.032-3.185-4.084-5.142-4.134
			c-1.64-0.054-2.598,0.614-3.117,1.174c-1.311,1.413-1.142,3.5-1.119,3.733l0.023,0.131c1.931,8.077,12.548,7.991,12.926,7.985
			c0.62,0.038,1.215,0.056,1.788,0.056c13.295,0,14.206-9.661,14.212-9.745C39.816,25.307,33.943,22.019,30.757,21.106z
			 M37.251,31.042c-0.027,0.354-0.832,8.66-13.964,7.865c-0.096-0.003-9.392,0.065-11.006-6.374
			c-0.012-0.264-0.027-1.444,0.598-2.117c0.352-0.379,0.877-0.56,1.599-0.535c0.909,0.023,1.29,0.291,3.556,3.284
			c0.329,0.565,1.915,2.708,7.146,2.971l0.082,0.004l0.081-0.009c2.623-0.298,6.99-1.793,6.727-5.455
			c-0.003-0.175-0.148-4.292-7.084-4.84c-0.096-0.007-9.599-0.812-11.704-6.461c-0.136-0.648-1.108-6.245,5.371-8.421
			c0.097-0.034,9.693-3.338,15.521,2.095c0.476,0.425,1.71,1.829,1.704,3.197c-0.003,0.727-0.349,1.382-1.074,2.019
			c-0.002,0.001-0.278,0.185-0.725,0.136c-0.556-0.065-1.729-0.528-3.331-2.896c-0.035-0.052-3.555-5.189-10.852-1.396l-0.17,0.112
			c-0.165,0.134-1.605,1.361-1.461,3.078c0.098,1.157,0.869,2.153,2.362,2.997c0.145,0.067,3.596,1.665,9.621,2.747
			C30.863,23.233,37.786,25.525,37.251,31.042z"/>
		<path d="M47.97,28.878c0.351-1.937,1.819-12.481-6.029-20.194c-0.628-0.735-7.77-8.683-20.948-6.888
			C19.237,0.884,10.867-2.865,3.798,4.288C3.732,4.356-2.653,11.174,1.67,19.956c-0.312,1.398-1.109,6.262,1.17,12.228
			c0.123,0.442,3.143,10.861,14.564,14.266c0.207,0.079,5.072,1.904,11.366,1.34c0.838,0.373,3.446,1.404,6.637,1.404
			c3.031,0,6.586-0.93,9.651-4.24C45.486,44.52,51.376,38.296,47.97,28.878z M43.626,43.559l-0.025,0.026
			c-5.923,6.412-13.864,2.467-14.199,2.295l-0.264-0.135l-0.292,0.029c-5.934,0.591-10.682-1.175-10.798-1.217
			C7.64,41.453,4.794,31.744,4.738,31.56C2.306,25.183,3.677,20.16,3.691,20.112l0.111-0.384l-0.185-0.354
			c-3.988-7.652,1.396-13.46,1.615-13.691c6.765-6.848,14.721-2.195,15.056-1.995l0.308,0.187l0.356-0.053
			c12.581-1.857,19.212,5.854,19.487,6.182l0.07,0.076c7.725,7.557,5.473,18.561,5.449,18.671l-0.062,0.289l0.104,0.275
			C49.202,37.788,43.856,43.327,43.626,43.559z"/>
	</g>
</g>
<g>
</g>
<g>
</g>
<g>
</g>
<g>
</g>
<g>
</g>
<g>
</g>
<g>
</g>
<g>
</g>
<g>
</g>
<g>
</g>
<g>
</g>
<g>
</g>
<g>
</g>
<g>
</g>
<g>
</g>
</svg>
