<?xml version="1.0" encoding="iso-8859-1"?>
<!-- Generator: Adobe Illustrator 19.0.0, SVG Export Plug-In . SVG Version: 6.00 Build 0)  -->
<svg version="1.1" id="Capa_1" xmlns="http://www.w3.org/2000/svg" xmlns:xlink="http://www.w3.org/1999/xlink" x="0px" y="0px"
	 viewBox="0 0 480 480" style="enable-background:new 0 0 480 480;" xml:space="preserve">
<g>
	<g>
		<g>
			<path d="M472,0H104c-4.418,0-8,3.582-8,8v104H8c-4.418,0-8,3.582-8,8v304c0.04,30.911,25.089,55.96,56,56h368
				c30.911-0.04,55.96-25.089,56-56V8C480,3.582,476.418,0,472,0z M56,464c-22.075-0.04-39.96-17.925-40-40V128h32v304h16V128h32
				v296C95.974,446.08,78.08,463.974,56,464z M464,424c-0.026,22.08-17.92,39.974-40,40H95.2c0.072-0.08,0.144-0.168,0.224-0.248
				c0.592-0.584,1.144-1.224,1.712-1.84c0.568-0.616,1.328-1.4,1.952-2.144c0.624-0.744,0.992-1.312,1.496-1.968
				c0.592-0.8,1.208-1.552,1.768-2.4c0.456-0.68,0.864-1.4,1.296-2.096c0.52-0.848,1.064-1.672,1.544-2.544
				c0.4-0.728,0.736-1.504,1.104-2.256c0.432-0.88,0.896-1.744,1.28-2.656c0.384-0.912,0.616-1.656,0.928-2.488
				c0.312-0.832,0.696-1.76,0.976-2.672c0.28-0.912,0.504-1.896,0.744-2.84c0.24-0.944,0.48-1.688,0.656-2.552
				c0.232-1.12,0.368-2.272,0.536-3.416c0.104-0.728,0.256-1.432,0.328-2.168c0.181-1.898,0.267-3.805,0.256-5.712V16h352V424z"/>
			<path d="M208,328.336c0.18,4.286,3.71,7.668,8,7.664h160c4.29,0.004,7.82-3.378,8-7.664l8-192
				c0.186-4.414-3.243-8.143-7.657-8.329C384.229,128.002,384.114,128,384,128h-32V88c-0.026-22.08-17.92-39.974-40-40h-32
				c-22.08,0.026-39.974,17.92-40,40v40h-32c-4.418-0.004-8.003,3.575-8.007,7.993c0,0.114,0.002,0.229,0.007,0.343L208,328.336z
				 M256,88c0-13.255,10.745-24,24-24h32c13.255,0,24,10.745,24,24v40h-80V88z M240,144v40h16v-40h80v40h16v-40h23.656l-7.328,176
				H223.672l-7.328-176H240z"/>
			<rect x="160" y="368" width="16" height="16"/>
			<rect x="192" y="368" width="240" height="16"/>
			<rect x="160" y="400" width="272" height="16"/>
		</g>
	</g>
</g>
<g>
</g>
<g>
</g>
<g>
</g>
<g>
</g>
<g>
</g>
<g>
</g>
<g>
</g>
<g>
</g>
<g>
</g>
<g>
</g>
<g>
</g>
<g>
</g>
<g>
</g>
<g>
</g>
<g>
</g>
</svg>
